<svg width="24" height="24" viewBox="0 0 24 24" fill="none" xmlns="http://www.w3.org/2000/svg">
<path d="M6 22C5.45 22 4.97917 21.8042 4.5875 21.4125C4.19583 21.0208 4 20.55 4 20V4C4 3.45 4.19583 2.97917 4.5875 2.5875C4.97917 2.19583 5.45 2 6 2H14L20 8V20C20 20.55 19.8042 21.0208 19.4125 21.4125C19.0208 21.8042 18.55 22 18 22H6ZM13 9H18L13 4V9Z" fill="#FBBC04"/>
<g clip-path="url(#clip0_6_15)">
<path d="M8.06039 16.1049C8.09028 16.1636 8.11959 16.222 8.14565 16.2825C8.24319 16.5007 8.38359 16.6221 8.60494 16.7145C8.70163 16.7465 8.79474 16.7474 8.89612 16.7494C8.93482 16.7504 8.97352 16.7514 9.01339 16.7524C9.08616 16.7535 9.08616 16.7535 9.16039 16.7547C9.39295 16.7593 9.39295 16.7593 9.6302 16.764C9.6302 17.2782 9.6302 17.7924 9.6302 18.3221C9.80055 18.3213 9.9709 18.3205 10.1464 18.3197C10.7091 18.3172 11.2718 18.3156 11.8345 18.3143C12.1757 18.3136 12.5169 18.3125 12.8581 18.3108C13.1555 18.3093 13.4529 18.3083 13.7504 18.308C13.9078 18.3078 14.0652 18.3073 14.2227 18.3063C14.371 18.3052 14.5193 18.3049 14.6677 18.3051C14.7219 18.3051 14.7762 18.3048 14.8305 18.3042C15.1489 18.301 15.4257 18.3038 15.6716 18.5311C15.833 18.6986 15.9129 18.8625 15.9245 19.0955C15.9179 19.3147 15.8502 19.4797 15.7021 19.6426C15.4951 19.8337 15.3068 19.8938 15.03 19.8918C15.0028 19.8919 14.9757 19.8921 14.9478 19.8923C14.8573 19.8927 14.7668 19.8925 14.6763 19.8923C14.6113 19.8924 14.5463 19.8926 14.4813 19.8929C14.3049 19.8934 14.1285 19.8934 13.9521 19.8932C13.8047 19.8931 13.6574 19.8933 13.5101 19.8935C13.1624 19.8939 12.8148 19.8939 12.4671 19.8935C12.1086 19.8932 11.7502 19.8936 11.3917 19.8944C11.0838 19.8951 10.7759 19.8953 10.4679 19.8951C10.2841 19.895 10.1002 19.8951 9.91641 19.8956C9.7435 19.896 9.57061 19.8959 9.3977 19.8953C9.33433 19.8952 9.27096 19.8953 9.2076 19.8956C9.12091 19.896 9.03425 19.8957 8.94755 19.8952C8.91019 19.8956 8.91019 19.8956 8.87208 19.896C8.6517 19.8933 8.43471 19.8249 8.27737 19.6648C8.26161 19.6495 8.24585 19.6343 8.22961 19.6186C8.07945 19.4079 8.04284 19.2128 8.04668 18.9587C8.04667 18.9277 8.04665 18.8967 8.04663 18.8647C8.04671 18.7631 8.04765 18.6615 8.0486 18.5598C8.04882 18.489 8.049 18.4182 8.04912 18.3473C8.04958 18.1616 8.05076 17.9758 8.0521 17.7901C8.05334 17.6003 8.05389 17.4105 8.0545 17.2207C8.05579 16.8487 8.05785 16.4768 8.06039 16.1049Z" fill="white"/>
<path d="M8.94694 12.0745C8.97408 12.0743 9.00122 12.074 9.02918 12.0738C9.11942 12.0733 9.20964 12.0736 9.29989 12.0739C9.36487 12.0737 9.42985 12.0734 9.49483 12.0731C9.67085 12.0724 9.84686 12.0725 10.0229 12.0728C10.17 12.073 10.3171 12.0727 10.4642 12.0725C10.8114 12.072 11.1585 12.0721 11.5056 12.0726C11.8634 12.0731 12.2212 12.0726 12.5789 12.0717C12.8865 12.0709 13.194 12.0707 13.5015 12.0709C13.685 12.0711 13.8686 12.071 14.0521 12.0704C14.2247 12.0698 14.3972 12.07 14.5698 12.0707C14.633 12.0709 14.6962 12.0708 14.7595 12.0704C15.4214 12.0667 15.4214 12.0667 15.6713 12.2989C15.8332 12.466 15.9129 12.6304 15.9245 12.8633C15.9179 13.0825 15.8502 13.2474 15.7021 13.4103C15.4952 13.6014 15.3068 13.6615 15.0302 13.6598C14.9895 13.66 14.9895 13.66 14.9481 13.6603C14.8576 13.6608 14.7672 13.6607 14.6768 13.6605C14.6118 13.6607 14.5469 13.661 14.4819 13.6613C14.3056 13.662 14.1293 13.662 13.9531 13.662C13.8058 13.662 13.6585 13.6622 13.5113 13.6625C13.1638 13.6631 12.8163 13.6632 12.4688 13.6629C12.1105 13.6627 11.7523 13.6634 11.3941 13.6645C11.0863 13.6655 10.7785 13.6658 10.4708 13.6657C10.287 13.6656 10.1033 13.6658 9.9196 13.6665C9.74676 13.6672 9.57394 13.6671 9.40111 13.6665C9.3378 13.6664 9.2745 13.6666 9.21119 13.667C8.55457 13.6711 8.55457 13.6711 8.29857 13.4408C8.12673 13.2693 8.05909 13.0776 8.04718 12.8389C8.05616 12.5994 8.15819 12.4265 8.32395 12.2578C8.52068 12.1197 8.70897 12.0721 8.94694 12.0745Z" fill="white"/>
<path d="M8.93967 15.1942C8.98031 15.1939 8.98031 15.1939 9.02176 15.1936C9.11219 15.1931 9.2026 15.1933 9.29303 15.1934C9.358 15.1932 9.42297 15.1929 9.48795 15.1926C9.66422 15.192 9.84048 15.1919 10.0168 15.1919C10.164 15.192 10.3113 15.1917 10.4585 15.1914C10.8061 15.1909 11.1536 15.1908 11.5011 15.191C11.8593 15.1912 12.2175 15.1905 12.5757 15.1894C12.8835 15.1885 13.1913 15.1881 13.4991 15.1882C13.6828 15.1883 13.8665 15.1881 14.0502 15.1874C14.2231 15.1867 14.3959 15.1868 14.5687 15.1874C14.632 15.1875 14.6953 15.1874 14.7586 15.1869C15.4213 15.1827 15.4213 15.1827 15.6713 15.415C15.8332 15.5821 15.9128 15.7465 15.9245 15.9794C15.9179 16.1986 15.8502 16.3636 15.7021 16.5265C15.4952 16.7175 15.3068 16.7776 15.0301 16.7759C14.9895 16.7761 14.9895 16.7761 14.9481 16.7764C14.8576 16.7769 14.7672 16.7768 14.6768 16.7766C14.6118 16.7769 14.5468 16.7771 14.4819 16.7774C14.3056 16.7781 14.1293 16.7782 13.9531 16.7781C13.8058 16.7781 13.6585 16.7783 13.5113 16.7786C13.1638 16.7792 12.8163 16.7793 12.4687 16.7791C12.1105 16.7789 11.7523 16.7795 11.3941 16.7807C11.0863 16.7816 10.7785 16.7819 10.4708 16.7818C10.287 16.7817 10.1033 16.7819 9.9196 16.7826C9.74676 16.7833 9.57394 16.7832 9.4011 16.7826C9.3378 16.7825 9.27449 16.7827 9.21119 16.7831C8.55456 16.7873 8.55456 16.7873 8.29856 16.5569C8.12746 16.3862 8.05989 16.1944 8.04529 15.9569C8.05284 15.7558 8.133 15.5921 8.26769 15.4434C8.47504 15.2528 8.66288 15.1924 8.93967 15.1942Z" fill="white"/>
<path d="M8.06036 16.1049C8.12074 16.2247 8.12074 16.2247 8.14562 16.2825C8.24316 16.5007 8.38356 16.6221 8.60492 16.7145C8.7016 16.7465 8.79471 16.7474 8.89609 16.7494C8.93479 16.7504 8.97349 16.7514 9.01336 16.7524C9.08613 16.7535 9.08613 16.7535 9.16036 16.7547C9.39292 16.7593 9.39292 16.7593 9.63018 16.764C9.63018 17.2782 9.63018 17.7924 9.63018 18.3221C9.16602 18.3277 9.16602 18.3277 9.02152 18.3283C8.74729 18.3343 8.51497 18.3624 8.30509 18.5541C8.20059 18.6637 8.14263 18.7806 8.09055 18.9213C8.08059 18.9213 8.07063 18.9213 8.06036 18.9213C8.06036 17.9919 8.06036 17.0625 8.06036 16.1049Z" fill="white"/>
<path d="M8.06036 12.9888C8.12074 13.1086 8.12074 13.1086 8.14562 13.1664C8.24316 13.3846 8.38356 13.5059 8.60492 13.5984C8.7016 13.6304 8.79471 13.6313 8.89609 13.6333C8.93479 13.6343 8.97349 13.6353 9.01336 13.6363C9.08613 13.6374 9.08613 13.6374 9.16036 13.6386C9.39292 13.6432 9.39292 13.6432 9.63018 13.6479C9.63018 14.1621 9.63018 14.6763 9.63018 15.206C9.16602 15.2116 9.16602 15.2116 9.02152 15.2122C8.74729 15.2182 8.51497 15.2463 8.30509 15.438C8.20059 15.5476 8.14263 15.6645 8.09055 15.8052C8.08059 15.8052 8.07063 15.8052 8.06036 15.8052C8.06036 14.8758 8.06036 13.9464 8.06036 12.9888Z" fill="white"/>
</g>
<defs>
<clipPath id="clip0_6_15">
<rect width="8" height="8" fill="white" transform="translate(8 12)"/>
</clipPath>
</defs>
</svg>
